{
	"asset":{
		"generator":"Khronos glTF Blender I/O v3.6.27",
		"version":"2.0"
	},
	"extensionsUsed":[
		"KHR_materials_specular",
		"KHR_materials_ior"
	],
	"scene":0,
	"scenes":[
		{
			"name":"Scene",
			"nodes":[
				0
			]
		}
	],
	"nodes":[
		{
			"mesh":0,
			"name":"ConfederatePistol",
			"rotation":[
				0.7071068286895752,
				0,
				0,
				0.7071068286895752
			],
			"translation":[
				-2.815793037414551,
				-5.281484127044678,
				12.88601303100586
			]
		}
	],
	"materials":[
		{
			"doubleSided":true,
			"extensions":{
				"KHR_materials_specular":{
					"specularColorFactor":[
						0,
						0,
						0
					]
				},
				"KHR_materials_ior":{
					"ior":1.4500000476837158
				}
			},
			"name":"default_Mat",
			"pbrMetallicRoughness":{
				"baseColorFactor":[
					0.800000011920929,
					0.800000011920929,
					0.800000011920929,
					1
				],
				"metallicFactor":0
			}
		},
		{
			"doubleSided":true,
			"extensions":{
				"KHR_materials_specular":{
					"specularColorFactor":[
						0,
						0,
						0
					]
				},
				"KHR_materials_ior":{
					"ior":1.4500000476837158
				}
			},
			"name":"Metal_-_Stainless_Steel_Polished",
			"pbrMetallicRoughness":{
				"baseColorFactor":[
					0.800000011920929,
					0.800000011920929,
					0.800000011920929,
					1
				],
				"metallicFactor":0
			}
		},
		{
			"doubleSided":true,
			"extensions":{
				"KHR_materials_specular":{
					"specularColorFactor":[
						0,
						0,
						0
					]
				},
				"KHR_materials_ior":{
					"ior":1.4500000476837158
				}
			},
			"name":"Metal_-_Iron_Cast",
			"pbrMetallicRoughness":{
				"baseColorFactor":[
					0.800000011920929,
					0.800000011920929,
					0.800000011920929,
					1
				],
				"metallicFactor":0
			}
		},
		{
			"doubleSided":true,
			"extensions":{
				"KHR_materials_specular":{
					"specularColorFactor":[
						0,
						0,
						0
					]
				},
				"KHR_materials_ior":{
					"ior":1.4500000476837158
				}
			},
			"name":"Metal_-_Brass",
			"pbrMetallicRoughness":{
				"baseColorFactor":[
					0.800000011920929,
					0.800000011920929,
					0.800000011920929,
					1
				],
				"metallicFactor":0
			}
		},
		{
			"doubleSided":true,
			"extensions":{
				"KHR_materials_specular":{
					"specularColorFactor":[
						0,
						0,
						0
					]
				},
				"KHR_materials_ior":{
					"ior":1.4500000476837158
				}
			},
			"name":"Mat.1",
			"pbrMetallicRoughness":{
				"baseColorFactor":[
					0.800000011920929,
					0.800000011920929,
					0.800000011920929,
					1
				],
				"metallicFactor":0
			}
		}
	],
	"meshes":[
		{
			"name":"ConfederatePistol",
			"primitives":[
				{
					"attributes":{
						"POSITION":0,
						"NORMAL":1,
						"TEXCOORD_0":2
					},
					"indices":3,
					"material":0
				},
				{
					"attributes":{
						"POSITION":4,
						"NORMAL":5,
						"TEXCOORD_0":6
					},
					"indices":7,
					"material":1
				},
				{
					"attributes":{
						"POSITION":8,
						"NORMAL":9,
						"TEXCOORD_0":10
					},
					"indices":11,
					"material":2
				},
				{
					"attributes":{
						"POSITION":12,
						"NORMAL":13,
						"TEXCOORD_0":14
					},
					"indices":15,
					"material":3
				},
				{
					"attributes":{
						"POSITION":16,
						"NORMAL":17,
						"TEXCOORD_0":18
					},
					"indices":19,
					"material":4
				}
			]
		}
	],
	"accessors":[
		{
			"bufferView":0,
			"componentType":5126,
			"count":44,
			"max":[
				181.5446319580078,
				80.29591369628906,
				47.897438049316406
			],
			"min":[
				-257.77642822265625,
				-359.0251770019531,
				-355.8309020996094
			],
			"type":"VEC3"
		},
		{
			"bufferView":1,
			"componentType":5126,
			"count":44,
			"type":"VEC3"
		},
		{
			"bufferView":2,
			"componentType":5126,
			"count":44,
			"type":"VEC2"
		},
		{
			"bufferView":3,
			"componentType":5123,
			"count":126,
			"type":"SCALAR"
		},
		{
			"bufferView":4,
			"componentType":5126,
			"count":2701,
			"max":[
				-64.78679656982422,
				-107.11830139160156,
				29.27873992919922
			],
			"min":[
				-73.07310485839844,
				-131.40037536621094,
				21.47873878479004
			],
			"type":"VEC3"
		},
		{
			"bufferView":5,
			"componentType":5126,
			"count":2701,
			"type":"VEC3"
		},
		{
			"bufferView":6,
			"componentType":5126,
			"count":2701,
			"type":"VEC2"
		},
		{
			"bufferView":7,
			"componentType":5123,
			"count":7320,
			"type":"SCALAR"
		},
		{
			"bufferView":8,
			"componentType":5126,
			"count":8739,
			"max":[
				-65.91399383544922,
				-91.92876434326172,
				40.741119384765625
			],
			"min":[
				-72.80240631103516,
				-160.0016632080078,
				19.136978149414062
			],
			"type":"VEC3"
		},
		{
			"bufferView":9,
			"componentType":5126,
			"count":8739,
			"type":"VEC3"
		},
		{
			"bufferView":10,
			"componentType":5126,
			"count":8739,
			"type":"VEC2"
		},
		{
			"bufferView":11,
			"componentType":5123,
			"count":32688,
			"type":"SCALAR"
		},
		{
			"bufferView":12,
			"componentType":5126,
			"count":5273,
			"max":[
				-64.86558532714844,
				-97.0407485961914,
				39.54525375366211
			],
			"min":[
				-72.45692443847656,
				-119.1908187866211,
				21.738910675048828
			],
			"type":"VEC3"
		},
		{
			"bufferView":13,
			"componentType":5126,
			"count":5273,
			"type":"VEC3"
		},
		{
			"bufferView":14,
			"componentType":5126,
			"count":5273,
			"type":"VEC2"
		},
		{
			"bufferView":15,
			"componentType":5123,
			"count":22488,
			"type":"SCALAR"
		},
		{
			"bufferView":16,
			"componentType":5126,
			"count":3009,
			"max":[
				-66.083740234375,
				-83.2265625,
				47.931640625
			],
			"min":[
				-69.77607727050781,
				-102.12897491455078,
				30.470413208007812
			],
			"type":"VEC3"
		},
		{
			"bufferView":17,
			"componentType":5126,
			"count":3009,
			"type":"VEC3"
		},
		{
			"bufferView":18,
			"componentType":5126,
			"count":3009,
			"type":"VEC2"
		},
		{
			"bufferView":19,
			"componentType":5123,
			"count":16032,
			"type":"SCALAR"
		}
	],
	"bufferViews":[
		{
			"buffer":0,
			"byteLength":528,
			"byteOffset":0,
			"target":34962
		},
		{
			"buffer":0,
			"byteLength":528,
			"byteOffset":528,
			"target":34962
		},
		{
			"buffer":0,
			"byteLength":352,
			"byteOffset":1056,
			"target":34962
		},
		{
			"buffer":0,
			"byteLength":252,
			"byteOffset":1408,
			"target":34963
		},
		{
			"buffer":0,
			"byteLength":32412,
			"byteOffset":1660,
			"target":34962
		},
		{
			"buffer":0,
			"byteLength":32412,
			"byteOffset":34072,
			"target":34962
		},
		{
			"buffer":0,
			"byteLength":21608,
			"byteOffset":66484,
			"target":34962
		},
		{
			"buffer":0,
			"byteLength":14640,
			"byteOffset":88092,
			"target":34963
		},
		{
			"buffer":0,
			"byteLength":104868,
			"byteOffset":102732,
			"target":34962
		},
		{
			"buffer":0,
			"byteLength":104868,
			"byteOffset":207600,
			"target":34962
		},
		{
			"buffer":0,
			"byteLength":69912,
			"byteOffset":312468,
			"target":34962
		},
		{
			"buffer":0,
			"byteLength":65376,
			"byteOffset":382380,
			"target":34963
		},
		{
			"buffer":0,
			"byteLength":63276,
			"byteOffset":447756,
			"target":34962
		},
		{
			"buffer":0,
			"byteLength":63276,
			"byteOffset":511032,
			"target":34962
		},
		{
			"buffer":0,
			"byteLength":42184,
			"byteOffset":574308,
			"target":34962
		},
		{
			"buffer":0,
			"byteLength":44976,
			"byteOffset":616492,
			"target":34963
		},
		{
			"buffer":0,
			"byteLength":36108,
			"byteOffset":661468,
			"target":34962
		},
		{
			"buffer":0,
			"byteLength":36108,
			"byteOffset":697576,
			"target":34962
		},
		{
			"buffer":0,
			"byteLength":24072,
			"byteOffset":733684,
			"target":34962
		},
		{
			"buffer":0,
			"byteLength":32064,
			"byteOffset":757756,
			"target":34963
		}
	],
	"buffers":[
		{
			"byteLength":789820,
			"uri":"data:application/octet-stream;base64,"
		}
	]
}
